<svg id="Layer_1" data-name="Layer 1" xmlns="http://www.w3.org/2000/svg" viewBox="0 0 842.6 174.9"><defs><style>.cls-1{fill:#569be6;}</style></defs><title>CouchCast_Logo</title><path class="cls-1" d="M126.1,106.8a2.7,2.7,0,0,1-1.7-.7c-.6-.4-1.5-1.9-2.5-4.5-.4-1.1-.7-2.1-1.1-3.1a7,7,0,0,1-.6-2.7c0-.6.4-1.1,1.1-1.8a15.8,15.8,0,0,1,2.6-2l3.6-2.8a22,22,0,0,0,3.9-4.1,29,29,0,0,0,5.1-9,22.6,22.6,0,0,0,1-9.6,18.4,18.4,0,0,0-3.5-8.7,18.9,18.9,0,0,0-8.9-6.3,36.1,36.1,0,0,0-19.7-2.3,42.9,42.9,0,0,0-17.1,7.1,62.1,62.1,0,0,0-14,13.6A109.2,109.2,0,0,0,63.8,87a96.6,96.6,0,0,0-6.7,17.7,62.4,62.4,0,0,0-2.3,15.2,66.3,66.3,0,0,0,2.3,16.6,46,46,0,0,0,7.5,15.8A41.7,41.7,0,0,0,78.4,164q8.5,4.5,21.3,4.5a52.9,52.9,0,0,0,13.6-1.6,58.8,58.8,0,0,0,11-4,54.8,54.8,0,0,0,8.4-5,39.2,39.2,0,0,0,5.7-4.8c2.8-2.9,5.2-5.3,7.1-7.1s3.5-2.7,4.9-2.7a4.1,4.1,0,0,1,3.8,2.2,8,8,0,0,1,1.3,3.5,13.7,13.7,0,0,1-1.7,3.2,41,41,0,0,1-3.6,5.3,74.1,74.1,0,0,1-11.5,11.6,76.7,76.7,0,0,1-14.7,9.3,81.5,81.5,0,0,1-17.6,6.3A84.6,84.6,0,0,1,86.6,187c-11.2,0-20.9-1.9-29.1-5.5a58.4,58.4,0,0,1-32.5-34,65.3,65.3,0,0,1-4-22.1,70.8,70.8,0,0,1,3.9-23A96.2,96.2,0,0,1,35.7,80.6a100.1,100.1,0,0,1,16.2-19A120,120,0,0,1,72.2,46.3,110.1,110.1,0,0,1,95,36.2a79.7,79.7,0,0,1,24.1-3.7,70.3,70.3,0,0,1,15.5,1.8,55.1,55.1,0,0,1,14.6,5.4A33.2,33.2,0,0,1,160,48.8a20.6,20.6,0,0,1,4.3,13.1,34.4,34.4,0,0,1-3.7,14.9,69.5,69.5,0,0,1-9.3,14.6,58,58,0,0,1-12.4,11C134.4,105.3,130.1,106.8,126.1,106.8Z" transform="translate(-21 -12.9)"/><path class="cls-1" d="M192.6,88.3a5,5,0,0,1,3.6,1.6,17.4,17.4,0,0,1,5,8.1,15.2,15.2,0,0,1,.7,4.2,5,5,0,0,1-.7,2.7,3.4,3.4,0,0,1-2.1,1.5,27.5,27.5,0,0,0-12.2,7.3,66.4,66.4,0,0,0-10.1,12.7,73.4,73.4,0,0,0-6.9,14.8,42,42,0,0,0-2.6,13.1c0,3.3.8,5.5,2.2,6.6a9.3,9.3,0,0,0,6,1.7,21.9,21.9,0,0,0,13-4.7,41.7,41.7,0,0,0,10.7-11.8,22.1,22.1,0,0,1-7.5-7.7,23.3,23.3,0,0,1-2.7-11.5,14.1,14.1,0,0,1,1.7-6.6,24.5,24.5,0,0,1,7.9-8.5,18.7,18.7,0,0,1,10.1-3.5,11.5,11.5,0,0,1,8.6,3.7c2.4,2.5,3.6,6.7,3.6,12.8a33.7,33.7,0,0,1-.3,4.4l-.6,4.6,5.3-.6,4.5-1a43.7,43.7,0,0,0,5.5-1.9,33,33,0,0,0,4.2-1.9c2.3-1.2,3.9-1.9,4.8-1.9s1.5.8,1.5,2.3a10.3,10.3,0,0,1-1.8,5.9,21.7,21.7,0,0,1-4.7,4.9,28.5,28.5,0,0,1-4.9,3.4c-1.8.9-3.5,1.8-5.3,2.5a64,64,0,0,1-10.4,3.1,48.2,48.2,0,0,1-8.2.9,99.1,99.1,0,0,1-9.5,12.6,87.4,87.4,0,0,1-12,10.8,58.9,58.9,0,0,1-13.6,7.6,38.5,38.5,0,0,1-14.5,2.8,15.2,15.2,0,0,1-8.1-2,20,20,0,0,1-6.1-5.1,23.6,23.6,0,0,1-3.9-6.9,22.5,22.5,0,0,1-1.3-7.6,67,67,0,0,1,2.5-17.4,90,90,0,0,1,7.1-18.6,86,86,0,0,1,11.5-17.4,66.5,66.5,0,0,1,15.6-13.9,73.7,73.7,0,0,1,7.8-4.3A18.2,18.2,0,0,1,192.6,88.3Zm9.3,34.2c0-.2-.1-.6-.2-1.2s-.7-.8-1.7-.8a1.7,1.7,0,0,1,.8.7l.6,1a2.8,2.8,0,0,1,.3,1.5v.6a3.1,3.1,0,0,1,.1-1A2.2,2.2,0,0,0,201.9,122.5Z" transform="translate(-21 -12.9)"/><path class="cls-1" d="M314,98.6a5.9,5.9,0,0,1,3.4.9,2.3,2.3,0,0,1,1.4,2,3.7,3.7,0,0,1-1.2,2.2,88.5,88.5,0,0,0-5.4,8.1c-2.6,4.3-5.2,9.1-7.9,14.5s-5,11.1-7.1,16.9a44.1,44.1,0,0,0-3.1,14.9q0,3.6,3,3.6a9.2,9.2,0,0,0,4.3-1.5,40,40,0,0,0,5.4-3.9l6-5.2,5.8-5.1a45.8,45.8,0,0,1,4.7-3.9,6.4,6.4,0,0,1,3.1-1.5c1.7,0,2.6,1,2.6,3a22.5,22.5,0,0,1-5.1,13.9,61,61,0,0,1-12,11.8,73.7,73.7,0,0,1-13.7,8.3,54.2,54.2,0,0,1-10,4,24.7,24.7,0,0,1-6.3.8q-7.3,0-9.9-3.9a19.9,19.9,0,0,1-2.5-10.5v-1.4a75.8,75.8,0,0,1-16.4,11.8,33.4,33.4,0,0,1-15.5,4c-4.8,0-8-1.3-9.8-4s-2.5-6.1-2.5-10.4a81.9,81.9,0,0,1,1.6-15.2,141.6,141.6,0,0,1,4.4-17.3c1.8-5.9,3.9-11.4,6.1-16.7a73.1,73.1,0,0,1,7.3-13.2c.6-1,2-1.9,4.1-2.8a46.8,46.8,0,0,1,7.2-2.3,69.2,69.2,0,0,1,7.7-1.4,55.1,55.1,0,0,1,6-.5,6,6,0,0,1,3.6.9,2.3,2.3,0,0,1,1.4,2,3.7,3.7,0,0,1-1.2,2.2,88.5,88.5,0,0,0-5.4,8.1c-2.6,4.3-5.2,9.1-7.9,14.5s-5,11.1-7.1,16.9a44.1,44.1,0,0,0-3.1,14.9q0,3.2,2.1,3.6a13.4,13.4,0,0,0,9.1-4.1,43.7,43.7,0,0,0,7.1-9.4,104.1,104.1,0,0,0,5.7-11.6c1.7-4.1,3.3-7.7,4.9-10.8s4-8.4,5.7-11.7a31.8,31.8,0,0,1,5.8-8.5,23.6,23.6,0,0,1,8.9-5.2Q304.7,98.6,314,98.6Z" transform="translate(-21 -12.9)"/><path class="cls-1" d="M391.3,113.2c.2,1-.3,2.2-1.3,3.6a24.2,24.2,0,0,1-4.2,4.4c-1.4,1.2-2.7,2.3-4.1,3.3a19.4,19.4,0,0,1-3.7,2.6,11,11,0,0,1-3.1,1.2,1.7,1.7,0,0,1-2-.8,6.3,6.3,0,0,1-1-3.2,22.4,22.4,0,0,0-.5-3.1c-.3-.7-.6-1.7-1.1-2.7s-2-1.7-4.4-1.7a16.1,16.1,0,0,0-9.8,3.3,30.9,30.9,0,0,0-7.7,8,47.9,47.9,0,0,0-5.3,10,37.3,37.3,0,0,0-2.5,9.5c-.6,5.1-.2,8.9,1.2,11.5s4.3,3.9,8.3,3.9a38.2,38.2,0,0,0,9.7-1.3,69.6,69.6,0,0,0,10.5-3.7,71.7,71.7,0,0,0,10.4-5.8,103.2,103.2,0,0,0,9.7-7.4,35.9,35.9,0,0,1,2.7-2.6,5.3,5.3,0,0,1,3.4-1.6c1.1,0,1.8.6,2.2,1.9a5.7,5.7,0,0,1,.2,2.8c-1.1,4.2-3.6,8.5-7.6,13a71.5,71.5,0,0,1-13.9,12.1,78.2,78.2,0,0,1-17.5,9,50.8,50.8,0,0,1-18.2,3.6,47.4,47.4,0,0,1-14.4-1.9,18.8,18.8,0,0,1-8.5-5.5,16.9,16.9,0,0,1-3.9-8.7,37.3,37.3,0,0,1-.1-11.1,52.9,52.9,0,0,1,6.9-20.6,83.4,83.4,0,0,1,14.2-18.6A74.9,74.9,0,0,1,354,103.1c6.5-3.5,12.9-5.3,19.1-5.3,4.6,0,8.1.7,10.5,1.9a15,15,0,0,1,5.5,4.5,12.1,12.1,0,0,1,2,5.1C391.2,111,391.3,112.3,391.3,113.2Z" transform="translate(-21 -12.9)"/><path class="cls-1" d="M421.2,125a44.3,44.3,0,0,1,5.7-5.9,96.6,96.6,0,0,1,9.8-7.9,71.4,71.4,0,0,1,10.6-6.2,73.2,73.2,0,0,1,10.5-4.1,35.3,35.3,0,0,1,9.7-1.5c4.2,0,7.2.6,9,2a6.5,6.5,0,0,1,2.6,5.4,18.6,18.6,0,0,1-1.4,6.4,55,55,0,0,1-3.9,7.6c-1.9,3.3-4.1,6.8-6.6,10.4s-5,7.1-7.3,10.4-4.2,6.6-5.8,9.5a20.6,20.6,0,0,0-2.5,7.7,2.7,2.7,0,0,0,3,2.9c2.5,0,5.4-1.1,8.5-3.3s6-4.7,8.9-7.3l7.5-7.2c2.2-2.2,3.6-3.3,4.4-3.3s2.6,1,2.6,3a15.5,15.5,0,0,1-2.2,7.4,31.8,31.8,0,0,1-4.6,6.9c-7.1,8-14,14-20.7,18.2s-13.3,6.3-19.6,6.3-8.4-1.5-10.1-4.5a23.1,23.1,0,0,1-2.4-11.1,33.3,33.3,0,0,1,2.3-11.7,84.9,84.9,0,0,1,5.6-11.3,108.6,108.6,0,0,1,6.3-9.7c2.2-2.9,3.9-5.3,5.2-7.2a6.6,6.6,0,0,0,1.5-3,.5.5,0,0,0-.6-.6c-2.2,0-4.8.9-7.9,2.8a57.1,57.1,0,0,0-10,7.9,96,96,0,0,0-10.5,12.8,85.6,85.6,0,0,0-9.2,17,68.7,68.7,0,0,1-6.8,13.1c-2.3,3.4-5.3,5.1-8.8,5.1l-2.5-.2-2.9-.5a6.7,6.7,0,0,1-2.4-1.1,1.9,1.9,0,0,1-.9-1.6c.1-3.8,1.4-11,3.9-21.5s6.3-24.2,11.6-41c.4-.9,1.4-3.7,3.1-8.4s3.7-10.5,6.3-17.5l8.6-23.5c3.2-8.8,6.6-17.7,10-26.8.5-1.3,1.2-3,2.1-5a63.8,63.8,0,0,0,2.2-6.6,8.3,8.3,0,0,1,2.5-4.2,17.3,17.3,0,0,1,4.3-2.7,27.8,27.8,0,0,1,5.1-1.7l5.4-.9a39,39,0,0,1,8.5-.5c2.1.2,3.5.8,4.3,1.9s.8,2.7.3,4.8a43.7,43.7,0,0,1-3,8c-2.2,4.6-4.9,10.5-8.2,17.8S445.6,66,442,74.4s-7.3,17-10.9,25.8S424.1,117.3,421.2,125Z" transform="translate(-21 -12.9)"/><path class="cls-1" d="M589.5,107.6a2.7,2.7,0,0,1-1.7-.7c-.6-.4-1.5-1.9-2.5-4.4a23.9,23.9,0,0,0-1.1-3.2,6.6,6.6,0,0,1-.6-2.7,2.6,2.6,0,0,1,1.1-1.7,19.7,19.7,0,0,1,2.6-2.1l3.6-2.8a17.1,17.1,0,0,0,3.9-4.1,27.9,27.9,0,0,0,5.1-9,22.6,22.6,0,0,0,1-9.6,17.9,17.9,0,0,0-3.5-8.7,19.1,19.1,0,0,0-8.8-6.3c-7-2.6-13.6-3.4-19.8-2.3a43.1,43.1,0,0,0-17.1,7.2,63.7,63.7,0,0,0-14,13.5,109.2,109.2,0,0,0-10.5,17.1,104.4,104.4,0,0,0-6.7,17.7,61.7,61.7,0,0,0-2.2,15.2,65.4,65.4,0,0,0,2.2,16.6,49,49,0,0,0,7.5,15.8,39.5,39.5,0,0,0,13.8,11.7c5.7,3,12.8,4.6,21.3,4.6a52.7,52.7,0,0,0,13.6-1.7,58.8,58.8,0,0,0,11-3.9,56.2,56.2,0,0,0,8.5-5.1,55,55,0,0,0,5.7-4.7c2.7-2.9,5.1-5.3,7-7.2s3.5-2.7,4.9-2.7a4,4,0,0,1,3.8,2.3,7.8,7.8,0,0,1,1.4,3.4,20.8,20.8,0,0,1-1.7,3.2,54.9,54.9,0,0,1-3.7,5.3,70,70,0,0,1-11.5,11.6,68.1,68.1,0,0,1-14.7,9.3,81.5,81.5,0,0,1-17.6,6.3,84,84,0,0,1-19.8,2.3c-11.2,0-20.8-1.8-29.1-5.4a59.2,59.2,0,0,1-32.5-34,65.9,65.9,0,0,1-4-22.2,70.8,70.8,0,0,1,3.9-23,93.5,93.5,0,0,1,10.8-21.7,100.7,100.7,0,0,1,16.2-19.1,123.5,123.5,0,0,1,20.3-15.2A110.5,110.5,0,0,1,558.4,37a80.2,80.2,0,0,1,24.1-3.7,71.9,71.9,0,0,1,15.6,1.8,55.7,55.7,0,0,1,14.5,5.4,33.5,33.5,0,0,1,10.8,9.2,20.2,20.2,0,0,1,4.3,13.1A34.7,34.7,0,0,1,624,77.7a68.9,68.9,0,0,1-9.3,14.5,55.7,55.7,0,0,1-12.4,11C597.8,106.1,593.6,107.6,589.5,107.6Z" transform="translate(-21 -12.9)"/><path class="cls-1" d="M688.5,116.9a5.6,5.6,0,0,1,3.2.8,2.1,2.1,0,0,1,1.2,1.7,3.3,3.3,0,0,1-1.2,2.1,31.5,31.5,0,0,0-4.9,7.4,93.6,93.6,0,0,0-4.6,10.1,95.7,95.7,0,0,0-3.4,10.8,37.4,37.4,0,0,0-1.3,9.1c0,2.4.9,3.6,2.8,3.6a8.9,8.9,0,0,0,4.3-1.5,40,40,0,0,0,5.4-3.9l6-5.1,5.8-5.2,4.8-3.9a6.2,6.2,0,0,1,3-1.5c1.8,0,2.7,1,2.7,3.1a17.5,17.5,0,0,1-2.1,7.3,28.5,28.5,0,0,1-4.6,6.9c-7.2,8-14.1,14.1-20.8,18.3s-13.2,6.2-19.7,6.2-9.7-1.9-11.7-5.7a14.3,14.3,0,0,1-1.9-6.6,45.3,45.3,0,0,1-13,9.3,36.2,36.2,0,0,1-16.1,3.6,13.1,13.1,0,0,1-9.7-4.4,26.5,26.5,0,0,1-6.1-10,20.4,20.4,0,0,1-1.3-7.5,48.9,48.9,0,0,1,7-24.8A77.1,77.1,0,0,1,631,115.7a95.7,95.7,0,0,1,27-15.1,90.4,90.4,0,0,1,31.8-5.7c5.7,0,9,1.8,9.9,5.5a16.7,16.7,0,0,1,.8,2.4,13.5,13.5,0,0,1,.4,2.9c0,2.3-1.2,3.4-3.5,3.4a16.9,16.9,0,0,1-4.8-.7,18.8,18.8,0,0,0-5.2-.8,53.2,53.2,0,0,0-21.1,4.4,65.2,65.2,0,0,0-18.2,11.4A61.8,61.8,0,0,0,635.5,139a35.3,35.3,0,0,0-4.8,17.2,7.7,7.7,0,0,0,1.1,3.9q1.1,1.8,4.5,2.4a12.3,12.3,0,0,0,7.7-2.3,22.1,22.1,0,0,0,5.9-5.9,50,50,0,0,0,5.3-9.1l3.7-8.7a70.5,70.5,0,0,1,3.6-7.8,17.9,17.9,0,0,1,5.1-6.2,25.2,25.2,0,0,1,8.2-4.1A44.6,44.6,0,0,1,688.5,116.9Z" transform="translate(-21 -12.9)"/><path class="cls-1" d="M791.5,142.8a1.6,1.6,0,0,1,1.5,1.1,6.1,6.1,0,0,1,.6,2.8c0,3.3-1.6,7.1-4.8,11.3a63.6,63.6,0,0,1-12.1,12.3,78.4,78.4,0,0,1-16.6,9.9,44.9,44.9,0,0,1-17.8,4h-4.4l-4.6-.3a64,64,0,0,1-8.8-1,41.4,41.4,0,0,1-8-2.5A23.7,23.7,0,0,1,710,176a15.9,15.9,0,0,1-4.2-6.5c-.1,0-.2-.1-.2-.3s1-2.7,3-4.9,4.2-4.2,6.3-6,3.6-2.9,4.4-3.4a5.6,5.6,0,0,1,3.2-.7c.8,0,1.2.2,1.3.7a14,14,0,0,0,5.2,5.6,11.7,11.7,0,0,0,6.4,2.2,4.2,4.2,0,0,0,2.9-.9c5.3-4.5,8.9-8.6,10.8-12.4a24.9,24.9,0,0,0,2.9-11.2,21.2,21.2,0,0,0-1.1-6.9,53.3,53.3,0,0,0-2.3-6l-2.4-5.8a20,20,0,0,1-1.6-6.6c-2.7,4.2-5.8,8.7-9.4,13.4s-7.4,9.6-11.6,14.6-8.8,9.7-13.5,14.5-9.7,9.2-14.8,13.4a4.9,4.9,0,0,1-2.4,1.1,1.2,1.2,0,0,1-1.3-.9,9.4,9.4,0,0,1-.2-2.5,18.1,18.1,0,0,1,3-10.6,47.2,47.2,0,0,1,6.1-7.4c2.8-2.8,5.7-5.9,8.7-9.4s6.2-7.2,9.4-11.5,6.6-8.9,10.2-14.1,7.3-11,11.4-17.3a13.4,13.4,0,0,1-.8-4.6,11.4,11.4,0,0,1,1.5-5.8,13.7,13.7,0,0,1,3.7-4.6,15.8,15.8,0,0,1,5.2-3,20.6,20.6,0,0,1,6.2-1,11.6,11.6,0,0,1,6.2,1.5c1.7,1,2.5,2.1,2.5,3.1s-.7,4.3-1,6.5-.7,4.5-1.1,6.8a58.8,58.8,0,0,0,3,10.7c1.4,3.5,2.8,7,4.1,10.4a101.1,101.1,0,0,1,3.5,10.6,36.6,36.6,0,0,1,1.6,11,38.8,38.8,0,0,1-.6,6.7,30.4,30.4,0,0,1-4.1,9.5,37.9,37.9,0,0,1-8.4,8.7,54.1,54.1,0,0,0,11-5.6,71.4,71.4,0,0,0,8.6-6.6c2.5-2.1,4.6-3.9,6.3-5.5S790.6,142.8,791.5,142.8Z" transform="translate(-21 -12.9)"/><path class="cls-1" d="M828,37.1c.7-1.1,2.6-2.2,5.6-3.2s8.1-1.7,15.5-1.9a5.7,5.7,0,0,1,3.9.8,4.6,4.6,0,0,1,1.5,2.7,7.4,7.4,0,0,1-.2,3.3,18.5,18.5,0,0,1-1.1,3.1,155.5,155.5,0,0,0-6.9,14.2c-2.1,5-4.4,10.3-6.9,16,6.3,4.4,11.1,7.7,14.5,9.8s5.8,3.6,7.2,4.6,2.3,1.8,2.4,2.2a9,9,0,0,1,0,2.4,12,12,0,0,1-1.9,4.3,8.7,8.7,0,0,1-3.3,2.6c-1.5.7-3.4.7-5.8.1a23.6,23.6,0,0,1-4.1-1.2,16.1,16.1,0,0,1-2.6-1.5,26.8,26.8,0,0,1-2.3-1.7,30.1,30.1,0,0,0-3.6-2.2l-3.4-2.1a27.3,27.3,0,0,0-3.8-2.3l-1.3,3.2L827.8,99c-1.3,2.8-2.5,5.7-3.6,8.6l-6.6,15.8c-2.1,5-4,9.8-5.6,14.3s-2.9,8.6-3.9,12.3a40.4,40.4,0,0,0-1.4,9.5c0,1.8.5,2.8,1.6,3s2.4,0,4.1-.7a23,23,0,0,0,5.2-2.9l4.9-3.6,3.3-3.2c1.4-1.6,3-3.1,4.6-4.7a58.1,58.1,0,0,1,4.9-4.2c1.6-1.2,2.8-1.8,3.7-1.8a2.8,2.8,0,0,1,2.5,2.4,11.9,11.9,0,0,1-.6,4.4,26.7,26.7,0,0,1-2,4.6,26.1,26.1,0,0,1-1.8,3.1,118.9,118.9,0,0,1-8.8,10.2,70.7,70.7,0,0,1-10.1,8.9,48.3,48.3,0,0,1-11.4,6.1,29.7,29.7,0,0,1-12.5,2.1l-3.2-.3a8.1,8.1,0,0,1-3.6-1.2,8.5,8.5,0,0,1-4.1-4.8,22.7,22.7,0,0,1-1.2-7.5c0-1.1-.1-2.1-.1-3.2a8,8,0,0,1,.3-3.1,106.6,106.6,0,0,1,4.3-22.5c2.4-8.2,5.1-16.3,8.1-24.4s6-15.9,9.1-23.2,5.8-13.6,7.9-18.8L793.5,62.8c-6.2-3.8-11.9-7.4-17.3-10.6l-14.5-8.4c-4.2-2.4-7.5-4.2-9.7-5.2a5.4,5.4,0,0,1-3.1-3.6,24.4,24.4,0,0,1-1.1-6.2,53,53,0,0,1,.1-6.9c.2-2.3.4-4,.6-5.3s.5-2.7,1.1-3.2A2.5,2.5,0,0,1,752,13q5.4.9,22.5,12.9l44.2,31.5c1-2.4,1.9-4.5,2.6-6.4l2.1-5.2a46.8,46.8,0,0,1,2-4.5A31.9,31.9,0,0,1,828,37.1Z" transform="translate(-21 -12.9)"/></svg>