<svg id="Approved" xmlns="http://www.w3.org/2000/svg" viewBox="0 0 973.2 796.1"><defs><style>.cls-1{opacity:0.5;}.cls-2,.cls-3{fill:none;}.cls-2,.cls-4{stroke:#569be6;stroke-width:14px;}.cls-2{stroke-linecap:square;}.cls-2,.cls-3,.cls-4{stroke-miterlimit:10;}.cls-3{stroke:#fff;stroke-width:40px;}.cls-3,.cls-4{stroke-linecap:round;}.cls-4{fill:#fff;}.cls-5{fill:#569be6;}</style></defs><title>Main_Page</title><g id="CouchCast"><g class="cls-1"><path class="cls-2" d="M233.4,447.5a42,42,0,0,1-41.9-41.9V296.1a42,42,0,0,1,41.9-41.9h0a42,42,0,0,1,41.9,41.9v61.2"/><path class="cls-2" d="M713.5,357.3V296.1a42,42,0,0,1,41.9-41.9h0a42,42,0,0,1,41.9,41.9V405.6a42,42,0,0,1-41.9,41.9h0"/><path class="cls-2" d="M275.3,357.3V247.7a77.5,77.5,0,0,1,77.3-77.3H636.2a77.5,77.5,0,0,1,77.3,77.3V357.3"/><line class="cls-2" x1="713.5" y1="357.3" x2="275.3" y2="357.3"/><line class="cls-2" x1="236.7" y1="447.5" x2="752.1" y2="447.5"/><line class="cls-2" x1="273.2" y1="450.7" x2="273.2" y2="515.2"/><line class="cls-2" x1="714.9" y1="450.7" x2="714.9" y2="515.2"/></g><path class="cls-3" d="M608.4,212.4V320.3c0,52.8-42.1,93.4-101.2,96.1H481.6c-64.2-2.7-102-43.3-102-96.1V212.4"/><rect class="cls-3" x="412.4" y="28.8" width="163.3" height="353.28" rx="67.2"/><line class="cls-3" x1="494" y1="416.4" x2="494" y2="514.8"/><line class="cls-3" x1="443.7" y1="514.8" x2="543.3" y2="514.8"/><path class="cls-4" d="M608.4,212.4V320.3c0,52.8-42.1,93.4-101.2,96.1H481.6c-64.2-2.7-102-43.3-102-96.1V212.4"/><rect class="cls-4" x="412.4" y="28.8" width="163.3" height="353.28" rx="67.2"/><line class="cls-4" x1="494" y1="416.4" x2="494" y2="514.8"/><line class="cls-4" x1="443.7" y1="514.8" x2="543.3" y2="514.8"/><path class="cls-5" d="M172.5,692a3.4,3.4,0,0,1-1.7-.7c-.6-.5-1.5-1.9-2.5-4.5-.4-1.1-.7-2.2-1.1-3.1a7.4,7.4,0,0,1-.6-2.8c0-.5.4-1,1.1-1.7l2.6-2.1a33.6,33.6,0,0,0,3.6-2.7,21.9,21.9,0,0,0,3.9-4.1,29,29,0,0,0,5.1-9,22.9,22.9,0,0,0,1-9.6,18.2,18.2,0,0,0-3.5-8.8,19.7,19.7,0,0,0-8.8-6.2c-7-2.7-13.6-3.5-19.8-2.3a42.9,42.9,0,0,0-17.1,7.1,62.1,62.1,0,0,0-14,13.6,103.4,103.4,0,0,0-17.2,34.8,61.7,61.7,0,0,0-2.2,15.2,66,66,0,0,0,2.2,16.6,50,50,0,0,0,7.5,15.8,40.4,40.4,0,0,0,13.8,11.6c5.7,3.1,12.8,4.6,21.3,4.6a52.9,52.9,0,0,0,13.6-1.6,58.8,58.8,0,0,0,11-4,65.9,65.9,0,0,0,8.5-5,54.2,54.2,0,0,0,5.7-4.8c2.7-2.9,5.1-5.3,7-7.1s3.5-2.8,4.9-2.8a4.2,4.2,0,0,1,3.8,2.3,8.2,8.2,0,0,1,1.4,3.4,13.9,13.9,0,0,1-1.8,3.3,49.3,49.3,0,0,1-3.6,5.3,74.1,74.1,0,0,1-11.5,11.6,76.7,76.7,0,0,1-14.7,9.3,93.8,93.8,0,0,1-17.6,6.3,84,84,0,0,1-19.8,2.2c-11.2,0-20.8-1.8-29.1-5.4a58.4,58.4,0,0,1-32.5-34,65.3,65.3,0,0,1-4-22.1,70.8,70.8,0,0,1,3.9-23,94.2,94.2,0,0,1,10.8-21.8,103.9,103.9,0,0,1,16.2-19.1,123.5,123.5,0,0,1,20.3-15.2,105,105,0,0,1,22.8-10.1,80.2,80.2,0,0,1,24.1-3.7,71.9,71.9,0,0,1,15.6,1.8,55.7,55.7,0,0,1,14.5,5.4,33.2,33.2,0,0,1,10.8,9.1,20.6,20.6,0,0,1,4.3,13.1A34.4,34.4,0,0,1,207,662a69.5,69.5,0,0,1-9.3,14.6,58,58,0,0,1-12.4,11C180.8,690.5,176.6,692,172.5,692Z"/><path class="cls-5" d="M239,673.5a5.3,5.3,0,0,1,3.6,1.5,18.5,18.5,0,0,1,3.1,3.7,22.8,22.8,0,0,1,2,4.5,19.1,19.1,0,0,1,.6,4.2,6,6,0,0,1-.6,2.7,4,4,0,0,1-2.2,1.5,27.5,27.5,0,0,0-12.2,7.3,70.5,70.5,0,0,0-10.1,12.7,75.2,75.2,0,0,0-6.9,14.7,43.1,43.1,0,0,0-2.6,13.2c0,3.3.8,5.5,2.2,6.6a9.9,9.9,0,0,0,6,1.7,21.9,21.9,0,0,0,13-4.7,43.6,43.6,0,0,0,10.8-11.8,20.5,20.5,0,0,1-7.5-7.7,22.3,22.3,0,0,1-2.8-11.5,14.8,14.8,0,0,1,1.7-6.7A24.2,24.2,0,0,1,245,697a17.9,17.9,0,0,1,10.2-3.5,11.3,11.3,0,0,1,8.5,3.7c2.4,2.5,3.6,6.7,3.6,12.8a33.7,33.7,0,0,1-.3,4.4l-.6,4.5,5.3-.5,4.6-1a48,48,0,0,0,5.4-1.9,33,33,0,0,0,4.2-1.9c2.3-1.2,3.9-1.9,4.8-1.9s1.5.8,1.5,2.3a10.3,10.3,0,0,1-1.8,5.9,21.2,21.2,0,0,1-4.6,4.9,33.9,33.9,0,0,1-5,3.4c-1.8.9-3.5,1.8-5.3,2.5a64,64,0,0,1-10.4,3.1,48.2,48.2,0,0,1-8.2.9,91.6,91.6,0,0,1-9.5,12.5,82.1,82.1,0,0,1-12,10.9,62.9,62.9,0,0,1-13.6,7.6,38.5,38.5,0,0,1-14.5,2.8,15.2,15.2,0,0,1-8.1-2,21.3,21.3,0,0,1-6.1-5.1,23.6,23.6,0,0,1-3.9-6.9,22.9,22.9,0,0,1-1.3-7.6,66.4,66.4,0,0,1,2.5-17.4,90,90,0,0,1,7.1-18.6A86,86,0,0,1,209,693.5a66.5,66.5,0,0,1,15.6-13.9,54.6,54.6,0,0,1,7.9-4.3A17.3,17.3,0,0,1,239,673.5Zm9.3,34.2a3.5,3.5,0,0,0-.2-1.2c-.1-.6-.7-.9-1.7-.9a3,3,0,0,1,.8.8,4.7,4.7,0,0,1,.6.9,3.5,3.5,0,0,1,.3,1.6v.5c0-.3.1-.7.1-.9A2.2,2.2,0,0,0,248.3,707.7Z"/><path class="cls-5" d="M360.4,683.8a6.6,6.6,0,0,1,3.4.8,2.6,2.6,0,0,1,1.4,2,3.7,3.7,0,0,1-1.2,2.3,75.6,75.6,0,0,0-5.4,8.1c-2.6,4.2-5.2,9.1-7.9,14.5s-5,11.1-7.1,16.8a45,45,0,0,0-3.1,15q0,3.6,3,3.6a8.2,8.2,0,0,0,4.3-1.6,49.4,49.4,0,0,0,5.4-3.8l6-5.2,5.8-5.1a59.9,59.9,0,0,1,4.7-3.9,6.4,6.4,0,0,1,3.1-1.5c1.7,0,2.6,1,2.6,3a22.5,22.5,0,0,1-5.1,13.9,63.9,63.9,0,0,1-12,11.8,76.4,76.4,0,0,1-13.6,8.3,57.3,57.3,0,0,1-10.1,4,24.7,24.7,0,0,1-6.3.8q-7.4,0-9.9-3.9c-1.6-2.6-2.4-6.1-2.4-10.6v-1.3a76.2,76.2,0,0,1-16.5,11.8,34.7,34.7,0,0,1-15.5,4c-4.8,0-8-1.4-9.7-4s-2.6-6.2-2.6-10.5a81.8,81.8,0,0,1,1.6-15.1,147.9,147.9,0,0,1,4.4-17.4c1.8-5.8,3.9-11.3,6.1-16.6a73.1,73.1,0,0,1,7.3-13.2c.6-1,2-1.9,4.1-2.8a46.8,46.8,0,0,1,7.2-2.3,69.2,69.2,0,0,1,7.7-1.4,38,38,0,0,1,6.1-.5,7.4,7.4,0,0,1,3.6.8,2.7,2.7,0,0,1,1.3,2,4,4,0,0,1-1.1,2.3,59.6,59.6,0,0,0-5.5,8.1c-2.6,4.2-5.2,9.1-7.9,14.5s-5,11.1-7.1,16.8a45,45,0,0,0-3.1,15q0,3.2,2.1,3.6a13.9,13.9,0,0,0,9.1-4.1,40.7,40.7,0,0,0,7.1-9.4,113.4,113.4,0,0,0,5.7-11.6c1.7-4.1,3.3-7.7,4.9-10.8s4-8.4,5.7-11.7a29.9,29.9,0,0,1,5.9-8.5,21.3,21.3,0,0,1,8.8-5.2Q351.1,683.8,360.4,683.8Z"/><path class="cls-5" d="M437.8,698.4a5.7,5.7,0,0,1-1.4,3.6,24.2,24.2,0,0,1-4.2,4.4l-4,3.3a28.6,28.6,0,0,1-3.7,2.6,12.8,12.8,0,0,1-3.2,1.2,1.7,1.7,0,0,1-2-.8,6.4,6.4,0,0,1-1-3.3,13.4,13.4,0,0,0-.5-3c-.3-.8-.6-1.7-1.1-2.8s-2-1.6-4.4-1.6a16.1,16.1,0,0,0-9.8,3.3,32.2,32.2,0,0,0-7.7,7.9,57.3,57.3,0,0,0-5.3,10.1,37.3,37.3,0,0,0-2.5,9.5c-.6,5.1-.2,8.9,1.3,11.5s4.2,3.9,8.2,3.9a37.6,37.6,0,0,0,9.7-1.3,67.9,67.9,0,0,0,20.9-9.5,103.2,103.2,0,0,0,9.7-7.4c.6-.7,1.6-1.5,2.8-2.6a5.1,5.1,0,0,1,3.3-1.6c1.1,0,1.8.6,2.2,1.9a7.8,7.8,0,0,1,.3,2.8,33.8,33.8,0,0,1-7.6,12.9,75.7,75.7,0,0,1-14,12.2,78.2,78.2,0,0,1-17.5,9,50.4,50.4,0,0,1-18.1,3.5c-6,0-10.8-.6-14.5-1.9a18,18,0,0,1-8.5-5.5,16.2,16.2,0,0,1-3.9-8.6,37.3,37.3,0,0,1-.1-11.1,54,54,0,0,1,6.9-20.6,86.3,86.3,0,0,1,14.2-18.7,74.5,74.5,0,0,1,18.1-13.4c6.5-3.5,12.9-5.3,19.1-5.3,4.6,0,8.1.7,10.6,1.9a15.4,15.4,0,0,1,5.4,4.5,12.1,12.1,0,0,1,2,5.1A36.1,36.1,0,0,1,437.8,698.4Z"/><path class="cls-5" d="M467.6,710.2a44.3,44.3,0,0,1,5.7-5.9,96.6,96.6,0,0,1,9.8-7.9,71.4,71.4,0,0,1,10.6-6.2,60.7,60.7,0,0,1,10.6-4.1,34.4,34.4,0,0,1,9.6-1.6c4.2,0,7.2.7,9,2a6.8,6.8,0,0,1,2.6,5.5,16.5,16.5,0,0,1-1.4,6.4,39.2,39.2,0,0,1-3.9,7.6c-1.9,3.3-4.1,6.8-6.6,10.4s-5,7.1-7.3,10.4-4.2,6.5-5.8,9.5A20.6,20.6,0,0,0,498,744a2.7,2.7,0,0,0,3,2.9c2.6,0,5.4-1.1,8.5-3.4a87.5,87.5,0,0,0,8.9-7.2q4.4-3.9,7.5-7.2c2.2-2.2,3.6-3.3,4.4-3.3s2.6,1,2.6,3a16.8,16.8,0,0,1-2.1,7.4,35.9,35.9,0,0,1-4.7,6.9c-7.1,7.9-14,14-20.7,18.2s-13.2,6.3-19.6,6.3-8.4-1.5-10-4.5a22.2,22.2,0,0,1-2.5-11.1,31.4,31.4,0,0,1,2.4-11.7,73.8,73.8,0,0,1,5.5-11.3c2.1-3.5,4.2-6.8,6.3-9.7s3.9-5.3,5.2-7.2a6.6,6.6,0,0,0,1.5-3,.5.5,0,0,0-.6-.6c-2.1,0-4.8.9-7.9,2.7a54.2,54.2,0,0,0-9.9,8A89,89,0,0,0,465.2,732a91.1,91.1,0,0,0-9.2,17,71.9,71.9,0,0,1-6.8,13.1c-2.3,3.4-5.2,5.1-8.8,5.1l-2.5-.2a13.6,13.6,0,0,1-2.9-.6,7.5,7.5,0,0,1-2.4-1,1.9,1.9,0,0,1-.9-1.6c.1-3.8,1.4-11,3.9-21.5s6.3-24.2,11.7-41l3-8.4c1.6-4.7,3.7-10.5,6.3-17.5l8.6-23.5c3.2-8.8,6.6-17.7,10-26.8l2.1-5.1a62.1,62.1,0,0,0,2.3-6.5,7.4,7.4,0,0,1,2.4-4.2,17.7,17.7,0,0,1,4.3-2.8,38,38,0,0,1,5.1-1.6l5.4-.9a39,39,0,0,1,8.5-.5c2.1.2,3.5.8,4.3,1.9a6.2,6.2,0,0,1,.4,4.8,65.3,65.3,0,0,1-3.1,8c-2.1,4.6-4.9,10.5-8.2,17.8s-6.7,15.1-10.3,23.6-7.3,17-10.9,25.8S470.5,702.5,467.6,710.2Z"/><path class="cls-5" d="M635.9,692.8a2.7,2.7,0,0,1-1.7-.7c-.6-.4-1.4-1.9-2.5-4.4a23.9,23.9,0,0,0-1.1-3.2,6.6,6.6,0,0,1-.6-2.7,2.6,2.6,0,0,1,1.1-1.7,19.7,19.7,0,0,1,2.6-2.1l3.6-2.8a19.2,19.2,0,0,0,3.9-4.1,29,29,0,0,0,5.1-9,21.1,21.1,0,0,0,1-9.6,17.5,17.5,0,0,0-3.5-8.7,19.1,19.1,0,0,0-8.8-6.3,36.6,36.6,0,0,0-19.8-2.3,44.4,44.4,0,0,0-17.1,7.1,66.6,66.6,0,0,0-14,13.6A109.2,109.2,0,0,0,573.6,673a95.9,95.9,0,0,0-6.6,17.7,57.9,57.9,0,0,0-2.3,15.2,61.4,61.4,0,0,0,2.3,16.6,46,46,0,0,0,7.5,15.8A40.4,40.4,0,0,0,588.2,750q8.5,4.5,21.3,4.5a54.9,54.9,0,0,0,24.6-5.6,48.8,48.8,0,0,0,8.5-5,71.8,71.8,0,0,0,5.7-4.7c2.8-3,5.1-5.3,7-7.2s3.6-2.7,4.9-2.7a4,4,0,0,1,3.8,2.2,8.5,8.5,0,0,1,1.4,3.5,20.8,20.8,0,0,1-1.7,3.2c-1.2,1.9-2.4,3.7-3.6,5.3a74.1,74.1,0,0,1-11.5,11.6,71.4,71.4,0,0,1-14.8,9.3,82.6,82.6,0,0,1-17.5,6.3,85.4,85.4,0,0,1-19.9,2.3q-16.6,0-29.1-5.4a61.3,61.3,0,0,1-20.4-14.3,59.7,59.7,0,0,1-12.1-19.8,64.7,64.7,0,0,1-3.9-22.1,73.4,73.4,0,0,1,3.8-23,93.5,93.5,0,0,1,10.8-21.7,104.5,104.5,0,0,1,16.2-19.1,115.1,115.1,0,0,1,20.4-15.2,105.9,105.9,0,0,1,22.8-10.2,79.1,79.1,0,0,1,24-3.7,70.5,70.5,0,0,1,15.6,1.8,55.7,55.7,0,0,1,14.5,5.4,34.5,34.5,0,0,1,10.8,9.1,20.6,20.6,0,0,1,4.3,13.1,35.2,35.2,0,0,1-3.7,15,68.9,68.9,0,0,1-9.3,14.5,57.5,57.5,0,0,1-12.3,11C644.3,691.3,640,692.8,635.9,692.8Z"/><path class="cls-5" d="M734.9,702.1a5.6,5.6,0,0,1,3.2.8c.8.5,1.2,1,1.2,1.7a3.3,3.3,0,0,1-1.2,2.1,35,35,0,0,0-4.9,7.4,105.5,105.5,0,0,0-4.6,10.1,112.1,112.1,0,0,0-3.4,10.8,37.4,37.4,0,0,0-1.3,9.1c0,2.4.9,3.6,2.8,3.6a8.9,8.9,0,0,0,4.3-1.5,40,40,0,0,0,5.4-3.9l6-5.1,5.8-5.2a59.4,59.4,0,0,1,4.8-3.9,6.6,6.6,0,0,1,3-1.5q2.7,0,2.7,3a17.5,17.5,0,0,1-2.1,7.4,28.5,28.5,0,0,1-4.6,6.9c-7.2,8-14.1,14.1-20.8,18.2s-13.2,6.3-19.7,6.3-9.7-1.9-11.7-5.7a16,16,0,0,1-1.9-6.6,45.3,45.3,0,0,1-13,9.3,36.2,36.2,0,0,1-16.1,3.6,13.1,13.1,0,0,1-9.7-4.4,26.9,26.9,0,0,1-6.1-10.1,19.5,19.5,0,0,1-1.3-7.4,48.6,48.6,0,0,1,7-24.8,78.8,78.8,0,0,1,18.7-21.4,95.7,95.7,0,0,1,27-15.1,90.4,90.4,0,0,1,31.8-5.7c5.7,0,9,1.8,9.9,5.5a19.9,19.9,0,0,1,.8,2.3,15.4,15.4,0,0,1,.4,3c0,2.3-1.2,3.4-3.5,3.4a14.2,14.2,0,0,1-4.8-.8,18.6,18.6,0,0,0-5.2-.7,51.9,51.9,0,0,0-21.1,4.4,65.2,65.2,0,0,0-18.2,11.4,60.1,60.1,0,0,0-12.6,15.6,35.1,35.1,0,0,0-4.7,17.2,7.6,7.6,0,0,0,1,3.9q1,1.8,4.5,2.4a13.5,13.5,0,0,0,7.8-2.3,25,25,0,0,0,5.8-5.9,53.6,53.6,0,0,0,5.3-9.1l3.7-8.7a70.5,70.5,0,0,1,3.6-7.8,20.4,20.4,0,0,1,5.1-6.2,25.2,25.2,0,0,1,8.2-4.1A44.6,44.6,0,0,1,734.9,702.1Z"/><path class="cls-5" d="M837.9,727.9q.9,0,1.5,1.2a5.8,5.8,0,0,1,.6,2.8c0,3.3-1.6,7.1-4.8,11.3a63.6,63.6,0,0,1-12.1,12.3,78.4,78.4,0,0,1-16.6,9.9,44.9,44.9,0,0,1-17.8,4h-4.4l-4.5-.3a51.6,51.6,0,0,1-8.9-1.1,41.2,41.2,0,0,1-8-2.4,23.7,23.7,0,0,1-6.5-4.3,15.9,15.9,0,0,1-4.2-6.5c-.1,0-.2-.1-.2-.4s1-2.6,3.1-4.8a69.6,69.6,0,0,1,6.2-6c2.2-1.8,3.6-2.9,4.4-3.4a5.8,5.8,0,0,1,3.2-.8,1.3,1.3,0,0,1,1.4.8,13.1,13.1,0,0,0,5.1,5.6,11.7,11.7,0,0,0,6.4,2.2,3.7,3.7,0,0,0,2.9-1q7.9-6.6,10.8-12.3a24.9,24.9,0,0,0,2.9-11.2,21.9,21.9,0,0,0-1.1-7c-.7-2-1.4-4-2.2-5.9s-1.7-3.9-2.5-5.8a22.8,22.8,0,0,1-1.6-6.6c-2.7,4.2-5.8,8.7-9.3,13.4s-7.5,9.6-11.7,14.5-8.8,9.8-13.5,14.6-9.7,9.2-14.7,13.4a5.5,5.5,0,0,1-2.5,1.1,1.1,1.1,0,0,1-1.2-.9,9,9,0,0,1-.3-2.5,18.7,18.7,0,0,1,3-10.7,60.2,60.2,0,0,1,6.1-7.4c2.8-2.7,5.7-5.9,8.7-9.3s6.2-7.2,9.4-11.5,6.6-8.9,10.2-14.1,7.3-11,11.4-17.3a13.4,13.4,0,0,1-.8-4.6,12,12,0,0,1,1.5-5.9,13.3,13.3,0,0,1,3.7-4.5,15.8,15.8,0,0,1,5.2-3,18.3,18.3,0,0,1,6.2-1,11.6,11.6,0,0,1,6.2,1.5c1.7,1,2.5,2,2.5,3s-.7,4.4-1,6.6-.7,4.5-1.1,6.7a51.2,51.2,0,0,0,3.1,10.8c1.4,3.5,2.7,7,4,10.4s2.5,7,3.6,10.6a40,40,0,0,1,1.5,11,36.8,36.8,0,0,1-.6,6.6,30.9,30.9,0,0,1-4.1,9.6,35.9,35.9,0,0,1-8.4,8.7,54.1,54.1,0,0,0,11-5.6,71.4,71.4,0,0,0,8.6-6.6l6.3-5.5C835.7,728.7,837,727.9,837.9,727.9Z"/><path class="cls-5" d="M874.4,622.3c.7-1.1,2.6-2.2,5.6-3.2s8.1-1.7,15.5-1.9a5.2,5.2,0,0,1,3.9.8,4.6,4.6,0,0,1,1.5,2.7,7.4,7.4,0,0,1-.2,3.3,17.2,17.2,0,0,1-1.1,3c-2.5,4.6-4.8,9.4-6.9,14.3l-6.9,16c6.3,4.4,11.2,7.7,14.5,9.7s5.8,3.7,7.2,4.7,2.3,1.7,2.4,2.2a9,9,0,0,1,0,2.4,12,12,0,0,1-1.9,4.3,9.8,9.8,0,0,1-3.3,2.6c-1.5.7-3.4.7-5.8.1a26.6,26.6,0,0,1-4.1-1.2l-2.6-1.5a26.8,26.8,0,0,1-2.3-1.7c-.9-.6-2-1.4-3.6-2.3l-3.4-2.1a42.7,42.7,0,0,0-3.8-2.2l-1.3,3.2c-1.1,2.9-2.3,5.8-3.6,8.6s-2.5,5.8-3.6,8.7c-2.3,5.4-4.5,10.7-6.6,15.8s-3.9,9.8-5.6,14.3-2.9,8.6-3.9,12.3a40.4,40.4,0,0,0-1.4,9.5c0,1.7.5,2.7,1.6,3s2.4,0,4.1-.7a27.7,27.7,0,0,0,5.2-2.9l4.9-3.6,3.3-3.3c1.4-1.5,3-3,4.6-4.6a58.1,58.1,0,0,1,4.9-4.2c1.6-1.2,2.8-1.8,3.7-1.8a2.8,2.8,0,0,1,2.5,2.4,11.9,11.9,0,0,1-.6,4.4,30.5,30.5,0,0,1-2,4.6,22.6,22.6,0,0,1-1.8,3,121.5,121.5,0,0,1-8.7,10.3,69.9,69.9,0,0,1-10.2,8.8,48.7,48.7,0,0,1-11.4,6.2,32.9,32.9,0,0,1-12.5,2.1l-3.2-.3a9.6,9.6,0,0,1-3.6-1.2,8.4,8.4,0,0,1-4.1-4.9,21.9,21.9,0,0,1-1.2-7.5c0-1,0-2-.1-3.1a8,8,0,0,1,.3-3.1,106.6,106.6,0,0,1,4.3-22.5c2.5-8.2,5.1-16.4,8.1-24.5s6-15.8,9.1-23.1,5.8-13.7,7.9-18.9l-18.3-11.4-17.3-10.5-14.4-8.5c-4.3-2.4-7.5-4.1-9.8-5.1a5.4,5.4,0,0,1-3.1-3.6,24.4,24.4,0,0,1-1.1-6.3,51.7,51.7,0,0,1,.1-6.8,38.3,38.3,0,0,1,.7-5.3c.1-1.7.4-2.7,1-3.3a2.5,2.5,0,0,1,2.4-.3q5.6.9,22.5,12.9c11.3,8,26.1,18.5,44.2,31.5,1-2.4,1.9-4.5,2.6-6.4s1.5-3.7,2.1-5.3,1.3-3,2-4.4A31.9,31.9,0,0,1,874.4,622.3Z"/></g></svg>